<?xml version="1.0" encoding="UTF-8"?>
<svg width="24px" height="24px" viewBox="0 0 24 24" version="1.1" xmlns="http://www.w3.org/2000/svg" xmlns:xlink="http://www.w3.org/1999/xlink">
    <!-- Generator: sketchtool 53.1 (72631) - https://sketchapp.com -->
    <title>B7C0474F-1C4A-494C-B9D4-E34F7C69DDB1</title>
    <desc>Created with sketchtool.</desc>
    <g id="Symbols" stroke="none" stroke-width="1" fill="none" fill-rule="evenodd">
        <g id="icon/menu-left/settings/-min-grey" fill="#B9BABB" fill-rule="nonzero">
            <path d="M13,7 L20,7 C20.5522847,7 21,7.44771525 21,8 C21,8.55228475 20.5522847,9 20,9 L13,9 C12.4477153,9 12,8.55228475 12,8 C12,7.44771525 12.4477153,7 13,7 Z M5,7 L7,7 C7.55228475,7 8,7.44771525 8,8 C8,8.55228475 7.55228475,9 7,9 L5,9 C4.44771525,9 4,8.55228475 4,8 C4,7.44771525 4.44771525,7 5,7 Z M17,15 L20,15 C20.5522847,15 21,15.4477153 21,16 C21,16.5522847 20.5522847,17 20,17 L17,17 C16.4477153,17 16,16.5522847 16,16 C16,15.4477153 16.4477153,15 17,15 Z M5,15 L11.5,15 C12.0522847,15 12.5,15.4477153 12.5,16 C12.5,16.5522847 12.0522847,17 11.5,17 L5,17 C4.44771525,17 4,16.5522847 4,16 C4,15.4477153 4.44771525,15 5,15 Z" id="Mask"></path>
            <path d="M14.5,17.5 C15.3284271,17.5 16,16.8284271 16,16 C16,15.1715729 15.3284271,14.5 14.5,14.5 C13.6715729,14.5 13,15.1715729 13,16 C13,16.8284271 13.6715729,17.5 14.5,17.5 Z M14.5,19.5 C12.5670034,19.5 11,17.9329966 11,16 C11,14.0670034 12.5670034,12.5 14.5,12.5 C16.4329966,12.5 18,14.0670034 18,16 C18,17.9329966 16.4329966,19.5 14.5,19.5 Z" id="Mask"></path>
            <path d="M10.5,9.5 C11.3284271,9.5 12,8.82842712 12,8 C12,7.17157288 11.3284271,6.5 10.5,6.5 C9.67157288,6.5 9,7.17157288 9,8 C9,8.82842712 9.67157288,9.5 10.5,9.5 Z M10.5,11.5 C8.56700338,11.5 7,9.93299662 7,8 C7,6.06700338 8.56700338,4.5 10.5,4.5 C12.4329966,4.5 14,6.06700338 14,8 C14,9.93299662 12.4329966,11.5 10.5,11.5 Z" id="Mask"></path>
        </g>
    </g>
</svg>